<svg xmlns="http://www.w3.org/2000/svg" width="512" height="512" data-name="Layer 1" viewBox="0 0 512 640" x="0px" y="0px"><path d="M256,196a60,60,0,1,0,60,60A60.07,60.07,0,0,0,256,196Z"/><path d="M501.78,216H448.45a198.18,198.18,0,0,0-27.57-66.88l37.73-37.92a10.12,10.12,0,0,0,0-14.24L415.13,53.44a10,10,0,0,0-14.15,0l-38.1,37.72A198.2,198.2,0,0,0,296,63.55V10.22C296,4.69,292.27,0,286.75,0H225.25C219.73,0,216,4.69,216,10.22V63.55a198.18,198.18,0,0,0-66.88,27.57L111.21,53.39a10.12,10.12,0,0,0-14.24,0L53.44,96.87a10,10,0,0,0,0,14.15l37.72,38.1A198.2,198.2,0,0,0,63.55,216H10.22C4.69,216,0,219.73,0,225.25v61.49C0,292.27,4.69,296,10.22,296H63.55a198.18,198.18,0,0,0,27.57,66.88L53.39,400.79a10.12,10.12,0,0,0,0,14.24l43.48,43.53a10,10,0,0,0,14.15,0l38.1-37.72A198.2,198.2,0,0,0,216,448.45v53.34c0,5.52,3.73,10.22,9.25,10.22h61.49c5.52,0,9.25-4.69,9.25-10.22V448.45a198.18,198.18,0,0,0,66.88-27.57l37.92,37.73a10.12,10.12,0,0,0,14.24,0l43.53-43.48a10,10,0,0,0,0-14.15l-37.72-38.1A198.2,198.2,0,0,0,448.45,296h53.34c5.52,0,10.22-3.73,10.22-9.25V225.25C512,219.73,507.31,216,501.78,216ZM256,356A100,100,0,1,1,356,256,100.11,100.11,0,0,1,256,356Z"/></svg>
